<svg xmlns="http://www.w3.org/2000/svg"> 

<symbol  viewBox="0 0 40 40" fill="none" id="logo">
<rect width="40" height="40" rx="12" fill="#8BAA36"/>
<path d="M8.79883 8.89569V13.9857V14.0884V13.9857C8.79883 15.4391 9.43295 16.7258 10.4161 17.5586C10.8969 17.9658 11.2145 18.5157 11.2145 19.126V27.6223C11.2145 28.5669 12.0262 29.3334 13.0263 29.3334C14.0264 29.3334 14.838 28.5669 14.838 27.6223V19.126C14.838 18.5157 15.1557 17.9658 15.6364 17.5586C16.6196 16.7258 17.2537 15.4391 17.2537 13.9857V8.89569V13.9857" stroke="#FAFAFA" stroke-width="2" stroke-linecap="round" stroke-linejoin="round"/>
<path d="M13.0254 14.5038V8.79999" stroke="#FAFAFA" stroke-width="2" stroke-linecap="round" stroke-linejoin="round"/>
<path d="M29.3322 9.99976C29.3322 9.37007 28.7911 8.85901 28.1243 8.85901H26.9165C24.9151 8.85901 23.293 10.391 23.293 12.2813V19.1258C23.293 20.6133 24.3039 21.867 25.7087 22.3382V27.6221C25.7087 28.5667 26.5203 29.3333 27.5204 29.3333C28.5205 29.3333 29.3322 28.5667 29.3322 27.6221V22.5481V9.99976Z" stroke="#FAFAFA" stroke-width="2" stroke-linecap="round" stroke-linejoin="round"/>
</symbol>

<symbol  viewBox="0 0 14 15" id="name">
<path d="M13 14.25C13 13.2033 13 12.68 12.8708 12.2541C12.58 11.2953 11.8297 10.545 10.8709 10.2542C10.445 10.125 9.92167 10.125 8.875 10.125H5.125C4.07833 10.125 3.55499 10.125 3.12914 10.2542C2.17034 10.545 1.42003 11.2953 1.12918 12.2541C1 12.68 1 13.2033 1 14.25M10.375 4.125C10.375 5.98896 8.86396 7.5 7 7.5C5.13604 7.5 3.625 5.98896 3.625 4.125C3.625 2.26104 5.13604 0.75 7 0.75C8.86396 0.75 10.375 2.26104 10.375 4.125Z" stroke="#FAFAFA" stroke-linecap="round" stroke-linejoin="round"/>
</symbol>

<symbol  viewBox="0 0 16 13"  id="email">
<path d="M0.5 2.75L6.62369 7.03658C7.11957 7.3837 7.36751 7.55726 7.6372 7.62448C7.87542 7.68386 8.12458 7.68386 8.3628 7.62448C8.63249 7.55726 8.88043 7.3837 9.37631 7.03658L15.5 2.75M4.1 12.5H11.9C13.1601 12.5 13.7902 12.5 14.2715 12.2548C14.6948 12.039 15.039 11.6948 15.2548 11.2715C15.5 10.7902 15.5 10.1601 15.5 8.9V4.1C15.5 2.83988 15.5 2.20982 15.2548 1.72852C15.039 1.30516 14.6948 0.96095 14.2715 0.745235C13.7902 0.5 13.1601 0.5 11.9 0.5H4.1C2.83988 0.5 2.20982 0.5 1.72852 0.745235C1.30516 0.96095 0.96095 1.30516 0.745235 1.72852C0.5 2.20982 0.5 2.83988 0.5 4.1V8.9C0.5 10.1601 0.5 10.7902 0.745235 11.2715C0.96095 11.6948 1.30516 12.039 1.72852 12.2548C2.20982 12.5 2.83988 12.5 4.1 12.5Z" stroke="#FAFAFA" stroke-linecap="round" stroke-linejoin="round"/>
</symbol>

<symbol viewBox="0 0 16 15"  id="password">
<path d="M11.75 6.75V4.5C11.75 2.42893 10.0711 0.75 8 0.75C5.92893 0.75 4.25 2.42893 4.25 4.5V6.75M4.85 14.25H11.15C12.4101 14.25 13.0402 14.25 13.5215 14.0048C13.9448 13.789 14.289 13.4448 14.5048 13.0215C14.75 12.5402 14.75 11.9101 14.75 10.65V10.35C14.75 9.08988 14.75 8.45982 14.5048 7.97852C14.289 7.55516 13.9448 7.21095 13.5215 6.99524C13.0402 6.75 12.4101 6.75 11.15 6.75H4.85C3.58988 6.75 2.95982 6.75 2.47852 6.99524C2.05516 7.21095 1.71095 7.55516 1.49524 7.97852C1.25 8.45982 1.25 9.08988 1.25 10.35V10.65C1.25 11.9101 1.25 12.5402 1.49524 13.0215C1.71095 13.4448 2.05516 13.789 2.47852 14.0048C2.95982 14.25 3.58988 14.25 4.85 14.25Z" stroke="#FAFAFA" stroke-linecap="round" stroke-linejoin="round"/>
</symbol>


<symbol  viewBox="0 0 16.000000 16.000000"
 preserveAspectRatio="xMidYMid meet" id="eyeOpen">

<g transform="translate(0.000000,16.000000) scale(0.100000,-0.100000)"
fill="#000000" stroke="none">
<path d="M35 108 c-42 -24 -40 -49 6 -68 32 -14 70 -7 93 15 19 20 12 39 -20
54 -31 14 -53 14 -79 -1z m69 -20 c8 -14 7 -21 -6 -34 -30 -30 -75 9 -48 42
16 18 39 15 54 -8z m-74 -14 c0 -8 -5 -12 -10 -9 -6 4 -8 11 -5 16 9 14 15 11
15 -7z m105 7 c3 -5 1 -12 -5 -16 -5 -3 -10 1 -10 9 0 18 6 21 15 7z"/>
<path d="M60 75 c0 -8 7 -15 15 -15 8 0 15 7 15 15 0 8 -7 15 -15 15 -8 0 -15
-7 -15 -15z"/>
</g>
</symbol>


<symbol version="1.0"  viewBox="0 0 16.000000 16.000000"
 preserveAspectRatio="xMidYMid meet" id="eyeClosed">

<g transform="translate(0.000000,16.000000) scale(0.100000,-0.100000)"
fill="#000000" stroke="none">
<path d="M46 132 c-2 -4 13 -7 34 -7 21 0 36 3 34 7 -3 5 -18 8 -34 8 -16 0
-31 -3 -34 -8z"/>
<path d="M16 75 c-3 -9 0 -12 10 -8 8 3 14 -1 14 -9 0 -9 13 -13 40 -13 27 0
40 4 40 13 0 8 6 12 14 9 10 -4 13 -1 10 8 -5 11 -11 10 -35 -3 -27 -16 -31
-16 -58 0 -24 13 -30 14 -35 3z"/>
</g>
</symbol>







</svg>