<svg xmlns="http://www.w3.org/2000/svg"> 

<symbol  viewBox="0 0 40 40" fill="none" id="logo">
<rect width="40" height="40" rx="12" fill="#8BAA36"/>
<path d="M8.79883 8.89569V13.9857V14.0884V13.9857C8.79883 15.4391 9.43295 16.7258 10.4161 17.5586C10.8969 17.9658 11.2145 18.5157 11.2145 19.126V27.6223C11.2145 28.5669 12.0262 29.3334 13.0263 29.3334C14.0264 29.3334 14.838 28.5669 14.838 27.6223V19.126C14.838 18.5157 15.1557 17.9658 15.6364 17.5586C16.6196 16.7258 17.2537 15.4391 17.2537 13.9857V8.89569V13.9857" stroke="#FAFAFA" stroke-width="2" stroke-linecap="round" stroke-linejoin="round"/>
<path d="M13.0254 14.5038V8.79999" stroke="#FAFAFA" stroke-width="2" stroke-linecap="round" stroke-linejoin="round"/>
<path d="M29.3322 9.99976C29.3322 9.37007 28.7911 8.85901 28.1243 8.85901H26.9165C24.9151 8.85901 23.293 10.391 23.293 12.2813V19.1258C23.293 20.6133 24.3039 21.867 25.7087 22.3382V27.6221C25.7087 28.5667 26.5203 29.3333 27.5204 29.3333C28.5205 29.3333 29.3322 28.5667 29.3322 27.6221V22.5481V9.99976Z" stroke="#FAFAFA" stroke-width="2" stroke-linecap="round" stroke-linejoin="round"/>
</symbol>

<symbol  viewBox="0 0 18 19" fill="none"  id="name" >
<g opacity="0.8">
<path d="M15 16.25C15 15.2033 15 14.68 14.8708 14.2541C14.58 13.2953 13.8297 12.545 12.8709 12.2542C12.445 12.125 11.9217 12.125 10.875 12.125H7.125C6.07833 12.125 5.55499 12.125 5.12914 12.2542C4.17034 12.545 3.42003 13.2953 3.12918 14.2541C3 14.68 3 15.2033 3 16.25M12.375 6.125C12.375 7.98896 10.864 9.5 9 9.5C7.13604 9.5 5.625 7.98896 5.625 6.125C5.625 4.26104 7.13604 2.75 9 2.75C10.864 2.75 12.375 4.26104 12.375 6.125Z"  stroke-linecap="round" stroke-linejoin="round"/>
</g>
</symbol>

<symbol viewBox="0 0 18 19" fill="none" id="email" >
<g opacity="0.8">
<path d="M1.5 5.75L7.62369 10.0366C8.11957 10.3837 8.36751 10.5573 8.6372 10.6245C8.87542 10.6839 9.12458 10.6839 9.3628 10.6245C9.63249 10.5573 9.88043 10.3837 10.3763 10.0366L16.5 5.75M5.1 15.5H12.9C14.1601 15.5 14.7902 15.5 15.2715 15.2548C15.6948 15.039 16.039 14.6948 16.2548 14.2715C16.5 13.7902 16.5 13.1601 16.5 11.9V7.1C16.5 5.83988 16.5 5.20982 16.2548 4.72852C16.039 4.30516 15.6948 3.96095 15.2715 3.74524C14.7902 3.5 14.1601 3.5 12.9 3.5H5.1C3.83988 3.5 3.20982 3.5 2.72852 3.74524C2.30516 3.96095 1.96095 4.30516 1.74524 4.72852C1.5 5.20982 1.5 5.83988 1.5 7.1V11.9C1.5 13.1601 1.5 13.7902 1.74524 14.2715C1.96095 14.6948 2.30516 15.039 2.72852 15.2548C3.20982 15.5 3.83988 15.5 5.1 15.5Z"  stroke-linecap="round" stroke-linejoin="round"/>
</g>
</symbol>


<symbol  viewBox="0 0 18 19" fill="none" id="password" >
<g opacity="0.8">
<path d="M12.75 8.75V6.5C12.75 4.42893 11.0711 2.75 9 2.75C6.92893 2.75 5.25 4.42893 5.25 6.5V8.75M5.85 16.25H12.15C13.4101 16.25 14.0402 16.25 14.5215 16.0048C14.9448 15.789 15.289 15.4448 15.5048 15.0215C15.75 14.5402 15.75 13.9101 15.75 12.65V12.35C15.75 11.0899 15.75 10.4598 15.5048 9.97852C15.289 9.55516 14.9448 9.21095 14.5215 8.99524C14.0402 8.75 13.4101 8.75 12.15 8.75H5.85C4.58988 8.75 3.95982 8.75 3.47852 8.99524C3.05516 9.21095 2.71095 9.55516 2.49524 9.97852C2.25 10.4598 2.25 11.0899 2.25 12.35V12.65C2.25 13.9101 2.25 14.5402 2.49524 15.0215C2.71095 15.4448 3.05516 15.789 3.47852 16.0048C3.95982 16.25 4.58988 16.25 5.85 16.25Z"  stroke-linecap="round" stroke-linejoin="round"/>
</g>
</symbol>


<symbol  viewBox="0 0 16.000000 16.000000"
 preserveAspectRatio="xMidYMid meet" id="eyeOpen">

<g transform="translate(0.000000,16.000000) scale(0.100000,-0.100000)"
 >
<path d="M35 108 c-42 -24 -40 -49 6 -68 32 -14 70 -7 93 15 19 20 12 39 -20
54 -31 14 -53 14 -79 -1z m69 -20 c8 -14 7 -21 -6 -34 -30 -30 -75 9 -48 42
16 18 39 15 54 -8z m-74 -14 c0 -8 -5 -12 -10 -9 -6 4 -8 11 -5 16 9 14 15 11
15 -7z m105 7 c3 -5 1 -12 -5 -16 -5 -3 -10 1 -10 9 0 18 6 21 15 7z"/>
<path d="M60 75 c0 -8 7 -15 15 -15 8 0 15 7 15 15 0 8 -7 15 -15 15 -8 0 -15
-7 -15 -15z"/>
</g>
</symbol>


<symbol version="1.0"  viewBox="0 0 16.000000 16.000000"
 preserveAspectRatio="xMidYMid meet" id="eyeClosed">

<g transform="translate(0.000000,16.000000) scale(0.100000,-0.100000)"
fill="#000000" stroke="none">
<path d="M46 132 c-2 -4 13 -7 34 -7 21 0 36 3 34 7 -3 5 -18 8 -34 8 -16 0
-31 -3 -34 -8z"/>
<path d="M16 75 c-3 -9 0 -12 10 -8 8 3 14 -1 14 -9 0 -9 13 -13 40 -13 27 0
40 4 40 13 0 8 6 12 14 9 10 -4 13 -1 10 8 -5 11 -11 10 -35 -3 -27 -16 -31
-16 -58 0 -24 13 -30 14 -35 3z"/>
</g>
</symbol>







</svg>