<svg xmlns="http://www.w3.org/2000/svg"> 

<symbol  viewBox="0 0 40 40"  id="logo">
<rect width="40" height="40" rx="12" />
<path d="M8.79883 8.89569V13.9857V14.0884V13.9857C8.79883 15.4391 9.43295 16.7258 10.4161 17.5586C10.8969 17.9658 11.2145 18.5157 11.2145 19.126V27.6223C11.2145 28.5669 12.0262 29.3334 13.0263 29.3334C14.0264 29.3334 14.838 28.5669 14.838 27.6223V19.126C14.838 18.5157 15.1557 17.9658 15.6364 17.5586C16.6196 16.7258 17.2537 15.4391 17.2537 13.9857V8.89569V13.9857"  stroke-width="2" stroke-linecap="round" stroke-linejoin="round"/>
<path d="M13.0254 14.5038V8.79999"  stroke-width="2" stroke-linecap="round" stroke-linejoin="round"/>
<path d="M29.3322 9.99976C29.3322 9.37007 28.7911 8.85901 28.1243 8.85901H26.9165C24.9151 8.85901 23.293 10.391 23.293 12.2813V19.1258C23.293 20.6133 24.3039 21.867 25.7087 22.3382V27.6221C25.7087 28.5667 26.5203 29.3333 27.5204 29.3333C28.5205 29.3333 29.3322 28.5667 29.3322 27.6221V22.5481V9.99976Z"  stroke-width="2" stroke-linecap="round" stroke-linejoin="round"/>
</symbol>

<symbol  viewBox="0 0 18 19" fill="none"  id="name" >
<g opacity="0.8">
<path d="M15 16.25C15 15.2033 15 14.68 14.8708 14.2541C14.58 13.2953 13.8297 12.545 12.8709 12.2542C12.445 12.125 11.9217 12.125 10.875 12.125H7.125C6.07833 12.125 5.55499 12.125 5.12914 12.2542C4.17034 12.545 3.42003 13.2953 3.12918 14.2541C3 14.68 3 15.2033 3 16.25M12.375 6.125C12.375 7.98896 10.864 9.5 9 9.5C7.13604 9.5 5.625 7.98896 5.625 6.125C5.625 4.26104 7.13604 2.75 9 2.75C10.864 2.75 12.375 4.26104 12.375 6.125Z"  stroke-linecap="round" stroke-linejoin="round"/>
</g>
</symbol>

<symbol viewBox="0 0 18 19" fill="none" id="email" >
<g opacity="0.8">
<path d="M1.5 5.75L7.62369 10.0366C8.11957 10.3837 8.36751 10.5573 8.6372 10.6245C8.87542 10.6839 9.12458 10.6839 9.3628 10.6245C9.63249 10.5573 9.88043 10.3837 10.3763 10.0366L16.5 5.75M5.1 15.5H12.9C14.1601 15.5 14.7902 15.5 15.2715 15.2548C15.6948 15.039 16.039 14.6948 16.2548 14.2715C16.5 13.7902 16.5 13.1601 16.5 11.9V7.1C16.5 5.83988 16.5 5.20982 16.2548 4.72852C16.039 4.30516 15.6948 3.96095 15.2715 3.74524C14.7902 3.5 14.1601 3.5 12.9 3.5H5.1C3.83988 3.5 3.20982 3.5 2.72852 3.74524C2.30516 3.96095 1.96095 4.30516 1.74524 4.72852C1.5 5.20982 1.5 5.83988 1.5 7.1V11.9C1.5 13.1601 1.5 13.7902 1.74524 14.2715C1.96095 14.6948 2.30516 15.039 2.72852 15.2548C3.20982 15.5 3.83988 15.5 5.1 15.5Z"  stroke-linecap="round" stroke-linejoin="round"/>
</g>
</symbol>


<symbol  viewBox="0 0 18 19" fill="none" id="password" >
<g opacity="0.8">
<path d="M12.75 8.75V6.5C12.75 4.42893 11.0711 2.75 9 2.75C6.92893 2.75 5.25 4.42893 5.25 6.5V8.75M5.85 16.25H12.15C13.4101 16.25 14.0402 16.25 14.5215 16.0048C14.9448 15.789 15.289 15.4448 15.5048 15.0215C15.75 14.5402 15.75 13.9101 15.75 12.65V12.35C15.75 11.0899 15.75 10.4598 15.5048 9.97852C15.289 9.55516 14.9448 9.21095 14.5215 8.99524C14.0402 8.75 13.4101 8.75 12.15 8.75H5.85C4.58988 8.75 3.95982 8.75 3.47852 8.99524C3.05516 9.21095 2.71095 9.55516 2.49524 9.97852C2.25 10.4598 2.25 11.0899 2.25 12.35V12.65C2.25 13.9101 2.25 14.5402 2.49524 15.0215C2.71095 15.4448 3.05516 15.789 3.47852 16.0048C3.95982 16.25 4.58988 16.25 5.85 16.25Z"  stroke-linecap="round" stroke-linejoin="round"/>
</g>
</symbol>


<symbol  viewBox="0 0 16.000000 16.000000"
 preserveAspectRatio="xMidYMid meet" id="eyeOpen">

<g transform="translate(0.000000,16.000000) scale(0.100000,-0.100000)"
 >
<path d="M35 108 c-42 -24 -40 -49 6 -68 32 -14 70 -7 93 15 19 20 12 39 -20
54 -31 14 -53 14 -79 -1z m69 -20 c8 -14 7 -21 -6 -34 -30 -30 -75 9 -48 42
16 18 39 15 54 -8z m-74 -14 c0 -8 -5 -12 -10 -9 -6 4 -8 11 -5 16 9 14 15 11
15 -7z m105 7 c3 -5 1 -12 -5 -16 -5 -3 -10 1 -10 9 0 18 6 21 15 7z"/>
<path d="M60 75 c0 -8 7 -15 15 -15 8 0 15 7 15 15 0 8 -7 15 -15 15 -8 0 -15
-7 -15 -15z"/>
</g>
</symbol>


<symbol version="1.0"  viewBox="0 0 16.000000 16.000000"
 preserveAspectRatio="xMidYMid meet" id="eyeClosed">

<g transform="translate(0.000000,16.000000) scale(0.100000,-0.100000)"
fill="#000000" stroke="none">
<path d="M46 132 c-2 -4 13 -7 34 -7 21 0 36 3 34 7 -3 5 -18 8 -34 8 -16 0
-31 -3 -34 -8z"/>
<path d="M16 75 c-3 -9 0 -12 10 -8 8 3 14 -1 14 -9 0 -9 13 -13 40 -13 27 0
40 4 40 13 0 8 6 12 14 9 10 -4 13 -1 10 8 -5 11 -11 10 -35 -3 -27 -16 -31
-16 -58 0 -24 13 -30 14 -35 3z"/>
</g>
</symbol>


<symbol  viewBox="0 0 97 85" fill="none" xmlns="http://www.w3.org/2000/svg" id="avatar">
<path d="M89 0H8C3.58172 0 0 3.58172 0 8V77C0 81.4183 3.58172 85 8 85H89C93.4183 85 97 81.4183 97 77V8C97 3.58172 93.4183 0 89 0Z" fill="#D9D9D9"/>
<path d="M60.1905 38.4285V33.848C60.1905 33.0413 59.8707 32.2675 59.3011 31.6962C58.7316 31.1249 57.9587 30.8028 57.152 30.8003L52.5715 30.7866M60.1905 47.5714V52.1428C60.1905 52.9511 59.8694 53.7263 59.2979 54.2978C58.7264 54.8693 57.9512 55.1904 57.1429 55.1904H52.5715M43.4286 30.7866L38.848 30.8019C38.0414 30.8043 37.2685 31.1264 36.699 31.6977C36.1294 32.269 35.8096 33.0428 35.8096 33.8495V38.4285M43.4286 55.1904H38.8572C38.0489 55.1904 37.2737 54.8693 36.7022 54.2978C36.1307 53.7263 35.8096 52.9511 35.8096 52.1428V47.5714" stroke="#C4C4C4" stroke-width="1.8" stroke-linecap="round" stroke-linejoin="round"/>
<path d="M47.9023 45.75C48.5273 45.75 49.0587 45.5313 49.4963 45.094C49.9337 44.6563 50.1523 44.125 50.1523 43.5C50.1523 42.875 49.9337 42.3437 49.4963 41.906C49.0587 41.4687 48.5273 41.25 47.9023 41.25C47.2773 41.25 46.746 41.4687 46.3083 41.906C45.871 42.3437 45.6523 42.875 45.6523 43.5C45.6523 44.125 45.871 44.6563 46.3083 45.094C46.746 45.5313 47.2773 45.75 47.9023 45.75ZM43.9023 47.5C43.6273 47.5 43.392 47.4022 43.1963 47.2065C43.0003 47.0105 42.9023 46.775 42.9023 46.5V40.5C42.9023 40.225 43.0003 39.9897 43.1963 39.794C43.392 39.598 43.6273 39.5 43.9023 39.5H45.4773L46.4023 38.5H49.4023L50.3273 39.5H51.9023C52.1773 39.5 52.4128 39.598 52.6088 39.794C52.8045 39.9897 52.9023 40.225 52.9023 40.5V46.5C52.9023 46.775 52.8045 47.0105 52.6088 47.2065C52.4128 47.4022 52.1773 47.5 51.9023 47.5H43.9023Z" fill="#C4C4C4"/>
</symbol>


<symbol  viewBox="0 0 62 33" fill="none" id="themeToggler">
<g filter="url(#filter0_i_127_598)">
<rect x="1" y="2" width="61" height="27" rx="13.5" fill="#EFEFEF"/>
</g>
<g filter="url(#filter1_d_127_598)">
<ellipse cx="14.7248" cy="15.5" rx="10.675" ry="10.5" fill="white"/>
</g>
<defs>
<filter id="filter0_i_127_598" x="1" y="2" width="61" height="33" filterUnits="userSpaceOnUse" color-interpolation-filters="sRGB">
<feFlood flood-opacity="0" result="BackgroundImageFix"/>
<feBlend mode="normal" in="SourceGraphic" in2="BackgroundImageFix" result="shape"/>
<feColorMatrix in="SourceAlpha" type="matrix" values="0 0 0 0 0 0 0 0 0 0 0 0 0 0 0 0 0 0 127 0" result="hardAlpha"/>
<feMorphology radius="3" operator="erode" in="SourceAlpha" result="effect1_innerShadow_127_598"/>
<feOffset dy="6"/>
<feGaussianBlur stdDeviation="4"/>
<feComposite in2="hardAlpha" operator="arithmetic" k2="-1" k3="1"/>
<feColorMatrix type="matrix" values="0 0 0 0 0 0 0 0 0 0 0 0 0 0 0 0 0 0 0.1 0"/>
<feBlend mode="normal" in2="shape" result="effect1_innerShadow_127_598"/>
</filter>
<filter id="filter1_d_127_598" x="0.0498047" y="0" width="33.3496" height="33" filterUnits="userSpaceOnUse" color-interpolation-filters="sRGB">
<feFlood flood-opacity="0" result="BackgroundImageFix"/>
<feColorMatrix in="SourceAlpha" type="matrix" values="0 0 0 0 0 0 0 0 0 0 0 0 0 0 0 0 0 0 127 0" result="hardAlpha"/>
<feOffset dx="2" dy="1"/>
<feGaussianBlur stdDeviation="3"/>
<feColorMatrix type="matrix" values="0 0 0 0 0 0 0 0 0 0 0 0 0 0 0 0 0 0 0.25 0"/>
<feBlend mode="normal" in2="BackgroundImageFix" result="effect1_dropShadow_127_598"/>
<feBlend mode="normal" in="SourceGraphic" in2="effect1_dropShadow_127_598" result="shape"/>
</filter>
<linearGradient id="paint0_linear_127_598" x1="14.7248" y1="5" x2="14.7248" y2="26" gradientUnits="userSpaceOnUse">
<stop stop-color="white"/>
<stop offset="1" stop-color="#E8EAEA"/>
</linearGradient>
</defs>
</symbol>

<symbol  viewBox="0 0 62 33" fill="none" id="themeTogglerGreen">
<g filter="url(#filter0_i_127_604)">
<rect y="2" width="61" height="27" rx="13.5" fill="#8BAA36"/>
</g>
<g filter="url(#filter1_d_127_604)">
<ellipse cx="47.2746" cy="15.5" rx="10.675" ry="10.5" fill="white"/>
</g>
<defs>
<filter id="filter0_i_127_604" x="0" y="2" width="61" height="33" filterUnits="userSpaceOnUse" color-interpolation-filters="sRGB">
<feFlood flood-opacity="0" result="BackgroundImageFix"/>
<feBlend mode="normal" in="SourceGraphic" in2="BackgroundImageFix" result="shape"/>
<feColorMatrix in="SourceAlpha" type="matrix" values="0 0 0 0 0 0 0 0 0 0 0 0 0 0 0 0 0 0 127 0" result="hardAlpha"/>
<feMorphology radius="3" operator="erode" in="SourceAlpha" result="effect1_innerShadow_127_604"/>
<feOffset dy="6"/>
<feGaussianBlur stdDeviation="4"/>
<feComposite in2="hardAlpha" operator="arithmetic" k2="-1" k3="1"/>
<feColorMatrix type="matrix" values="0 0 0 0 0 0 0 0 0 0 0 0 0 0 0 0 0 0 0.1 0"/>
<feBlend mode="normal" in2="shape" result="effect1_innerShadow_127_604"/>
</filter>
<filter id="filter1_d_127_604" x="28.5996" y="0" width="33.3496" height="33" filterUnits="userSpaceOnUse" color-interpolation-filters="sRGB">
<feFlood flood-opacity="0" result="BackgroundImageFix"/>
<feColorMatrix in="SourceAlpha" type="matrix" values="0 0 0 0 0 0 0 0 0 0 0 0 0 0 0 0 0 0 127 0" result="hardAlpha"/>
<feOffset dx="-2" dy="1"/>
<feGaussianBlur stdDeviation="3"/>
<feColorMatrix type="matrix" values="0 0 0 0 0 0 0 0 0 0 0 0 0 0 0 0 0 0 0.25 0"/>
<feBlend mode="normal" in2="BackgroundImageFix" result="effect1_dropShadow_127_604"/>
<feBlend mode="normal" in="SourceGraphic" in2="effect1_dropShadow_127_604" result="shape"/>
</filter>
<linearGradient id="paint0_linear_127_604" x1="47.2746" y1="5" x2="47.2746" y2="26" gradientUnits="userSpaceOnUse">
<stop stop-color="white"/>
<stop offset="1" stop-color="#E8EAEA"/>
</linearGradient>
</defs>
</symbol>

<symbol  viewBox="0 0 24 24" fill="none" id="search">
<path d="M11 19C15.4183 19 19 15.4183 19 11C19 6.58172 15.4183 3 11 3C6.58172 3 3 6.58172 3 11C3 15.4183 6.58172 19 11 19Z" stroke="#22252A" stroke-width="2" stroke-linecap="round" stroke-linejoin="round"/>
<path d="M20.9999 21L16.6499 16.65" stroke="#22252A" stroke-width="2" stroke-linecap="round" stroke-linejoin="round"/>
</symbol>

<symbol  viewBox="0 0 24 16" fill="none" id="burger">
<path d="M1.5 8H22.5M1.5 1H22.5M1.5 15H15.5" stroke="#22252A" stroke-width="2" stroke-linecap="round" stroke-linejoin="round"/>
</symbol>

<symbol  viewBox="0 0 20 21"  id="facebook">
<path fill-rule="evenodd" clip-rule="evenodd" d="M20 10.5604C20 5.00473 15.5223 0.5 10 0.5C4.47768 0.5 0 5.00473 0 10.5604C0 15.5816 3.65625 19.7437 8.4375 20.4991V13.4694H5.89777V10.5604H8.4375V8.34397C8.4375 5.82303 9.9308 4.4294 12.2147 4.4294C13.3089 4.4294 14.4536 4.62611 14.4536 4.62611V7.10214H13.192C11.9504 7.10214 11.5621 7.87733 11.5621 8.67408V10.5604H14.3353L13.8924 13.4694H11.5625V20.5C16.3438 19.745 20 15.583 20 10.5604Z" />
</symbol>

<symbol  viewBox="0 0 20 15" id="youtube">
<path d="M19.8715 3.31202C19.8715 1.55425 18.5784 0.14023 16.9805 0.14023C14.8162 0.0390613 12.6089 0 10.3531 0H9.64989C7.39961 0 5.18839 0.0390614 3.02406 0.140621C1.43011 0.140621 0.136974 1.56246 0.136974 3.32022C0.039305 4.71042 -0.00210647 6.10101 0.000237572 7.49159C-0.00366917 8.88218 0.0406073 10.2741 0.133067 11.6673C0.133067 13.425 1.4262 14.8508 3.02015 14.8508C5.29387 14.9562 7.6262 15.0031 9.99759 14.9992C12.3729 15.007 14.6987 14.9575 16.975 14.8508C18.5729 14.8508 19.866 13.425 19.866 11.6673C19.9598 10.2728 20.0028 8.88218 19.9989 7.48769C20.0077 6.0971 19.9653 4.70521 19.8715 3.31202ZM8.0872 11.3235V3.64795L13.752 7.48378L8.0872 11.3235Z" />
</symbol>

<symbol  viewBox="0 0 20 17"  id="twitter">
<path d="M20 2.39583C19.2498 2.72181 18.456 2.93658 17.6438 3.03333C18.4974 2.53349 19.1393 1.73941 19.4492 0.800006C18.6421 1.27192 17.7606 1.60303 16.8425 1.77917C16.4559 1.37398 15.9909 1.05163 15.4758 0.831733C14.9607 0.611834 14.4063 0.498972 13.8463 0.500007C11.5788 0.500007 9.74375 2.30833 9.74375 4.53749C9.74214 4.84756 9.77767 5.15671 9.84958 5.45832C8.22362 5.3821 6.63147 4.96732 5.17499 4.24052C3.71852 3.51372 2.42979 2.4909 1.39125 1.2375C1.02691 1.85172 0.834222 2.55252 0.833333 3.26666C0.833333 4.66666 1.56375 5.90416 2.66667 6.62915C2.01322 6.61365 1.37316 6.4407 0.800833 6.12499V6.17499C0.800833 8.13332 2.2175 9.76248 4.0925 10.1333C3.73991 10.2273 3.37657 10.2749 3.01167 10.275C2.75274 10.2754 2.4944 10.2503 2.24042 10.2C2.76167 11.8041 4.27875 12.9708 6.07583 13.0041C4.61557 14.1295 2.82276 14.7378 0.979167 14.7333C0.651924 14.7328 0.324986 14.7133 0 14.675C1.87549 15.8726 4.0556 16.506 6.28083 16.5C13.8375 16.5 17.9658 10.3458 17.9658 5.00833C17.9658 4.83333 17.9613 4.65833 17.9529 4.48749C18.7542 3.91752 19.4474 3.20921 20 2.39583Z" />
</symbol>

<symbol  viewBox="0 0 20 21" id="instagram" >
<path d="M14.1665 2.16652C15.2707 2.16982 16.3286 2.60989 17.1094 3.39064C17.8901 4.17138 18.3302 5.22935 18.3335 6.33348V14.6665C18.3302 15.7707 17.8901 16.8286 17.1094 17.6094C16.3286 18.3901 15.2707 18.8302 14.1665 18.8335H5.83348C4.72935 18.8302 3.67138 18.3901 2.89064 17.6094C2.10989 16.8286 1.66982 15.7707 1.66652 14.6665V6.33348C1.66982 5.22935 2.10989 4.17138 2.89064 3.39064C3.67138 2.60989 4.72935 2.16982 5.83348 2.16652H14.1665ZM14.1665 0.5H5.83348C2.625 0.5 0 3.125 0 6.33348V14.6665C0 17.875 2.625 20.5 5.83348 20.5H14.1665C17.375 20.5 20 17.875 20 14.6665V6.33348C20 3.125 17.375 0.5 14.1665 0.5Z" />
<path d="M15.4165 6.33514C15.1693 6.33514 14.9276 6.26183 14.7221 6.12448C14.5165 5.98713 14.3563 5.79191 14.2617 5.5635C14.1671 5.33509 14.1423 5.08376 14.1905 4.84128C14.2388 4.59881 14.3578 4.37608 14.5326 4.20126C14.7075 4.02645 14.9302 3.90739 15.1727 3.85916C15.4151 3.81093 15.6665 3.83569 15.8949 3.9303C16.1233 4.0249 16.3185 4.18512 16.4559 4.39068C16.5932 4.59624 16.6665 4.83792 16.6665 5.08514C16.6669 5.2494 16.6348 5.4121 16.5721 5.56392C16.5094 5.71573 16.4173 5.85367 16.3012 5.96982C16.185 6.08596 16.0471 6.17802 15.8953 6.24071C15.7435 6.30341 15.5808 6.3355 15.4165 6.33514ZM10 7.16818C10.6593 7.16818 11.3038 7.36368 11.852 7.72997C12.4002 8.09626 12.8274 8.61688 13.0797 9.22599C13.332 9.83511 13.3981 10.5054 13.2694 11.152C13.1408 11.7986 12.8233 12.3926 12.3571 12.8588C11.8909 13.325 11.297 13.6425 10.6503 13.7711C10.0037 13.8997 9.33345 13.8337 8.72433 13.5814C8.11522 13.3291 7.5946 12.9018 7.22831 12.3536C6.86203 11.8055 6.66652 11.161 6.66652 10.5017C6.66747 9.61786 7.01897 8.77052 7.64392 8.14558C8.26886 7.52063 9.1162 7.16912 10 7.16818ZM10 5.50166C9.0111 5.50166 8.0444 5.79491 7.22215 6.34431C6.39991 6.89372 5.75904 7.67461 5.3806 8.58824C5.00217 9.50187 4.90315 10.5072 5.09608 11.4771C5.289 12.447 5.76521 13.3379 6.46447 14.0372C7.16373 14.7365 8.05465 15.2127 9.02455 15.4056C9.99446 15.5985 10.9998 15.4995 11.9134 15.1211C12.827 14.7426 13.6079 14.1018 14.1574 13.2795C14.7068 12.4573 15 11.4906 15 10.5017C15 9.17558 14.4732 7.90381 13.5355 6.96613C12.5979 6.02845 11.3261 5.50166 10 5.50166Z" />
</symbol>

<symbol  viewBox="0 0 18 14" fill="none" id="message">
<path d="M2.6 1H15.4C15.824 1.00119 16.2302 1.1596 16.53 1.44065C16.8298 1.7217 16.9987 2.10254 17 2.5V11.5C16.9987 11.8975 16.8298 12.2783 16.53 12.5593C16.2302 12.8404 15.824 12.9988 15.4 13H2.6C2.17604 12.9988 1.76981 12.8404 1.47003 12.5593C1.17024 12.2783 1.00127 11.8975 1 11.5V2.5C1.00127 2.10254 1.17024 1.7217 1.47003 1.44065C1.76981 1.1596 2.17604 1.00119 2.6 1V1Z" stroke="#FAFAFA" stroke-width="1.2" stroke-linecap="round" stroke-linejoin="round"/>
<path d="M17 2.49951L9 7.74951L1 2.49951" stroke="#FAFAFA" stroke-width="1.2" stroke-linecap="round" stroke-linejoin="round"/>
</symbol>


</svg>